<?xml version="1.0" encoding="utf-8"?>
<svg width="50" height="50" viewBox="0 0 50 50" fill="none" xmlns="http://www.w3.org/2000/svg">
  <g>
    <path d="M11.8125 0C11.3359 0.0898438 10.9922 0.511719 11 1C11 1 11 2 11 2C11 2 2.90625 2 2.90625 2C1.30469 2 0 3.30469 0 4.90625C0 4.90625 0 43 0 43C0 44.6445 1.30469 46 2.90625 46C2.90625 46 13 46 13 46L13 44C13 44 2.90625 44 2.90625 44C2.50781 44 2 43.5547 2 43C2 43 2 4.90625 2 4.90625C2 4.50781 2.50781 4 2.90625 4C2.90625 4 11 4 11 4L11 6L4 6L4 42L13 42L13 40L6 40L6 8L11 8C11 8 11 9 11 9C11 9.55078 11.4492 10 12 10C12 10 26 10 26 10C26.5508 10 27 9.55078 27 9C27 9 27 8 27 8L32 8L32 14L34 14L34 6L27 6L27 4C27 4 35.0938 4 35.0938 4C35.4922 4 36 4.50781 36 4.90625C36 4.90625 36 14 36 14L38 14C38 14 38 4.90625 38 4.90625C38 3.30469 36.6953 2 35.0938 2C35.0938 2 27 2 27 2C27 2 27 1 27 1C27 0.449219 26.5508 0 26 0C26 0 12 0 12 0C11.9688 0 11.9375 0 11.9062 0C11.875 0 11.8438 0 11.8125 0ZM13 2L25 2L25 8L13 8L13 2ZM14.8125 15C14.3359 15.0898 13.9922 15.5117 14 16C14 16 14 49 14 49C14 49.5508 14.4492 50 15 50C15 50 43 50 43 50C43.5508 50 44 49.5508 44 49C44 49 44 16 44 16C44 15.4492 43.5508 15 43 15C43 15 15 15 15 15C14.9688 15 14.9375 15 14.9062 15C14.875 15 14.8438 15 14.8125 15ZM16 17L42 17L42 48L16 48L16 17ZM20.7188 23C20.168 23.0781 19.7812 23.5898 19.8594 24.1406C19.9375 24.6914 20.4492 25.0781 21 25C21 25 38 25 38 25C38.3594 25.0039 38.6953 24.8164 38.8789 24.5039C39.0586 24.1914 39.0586 23.8086 38.8789 23.4961C38.6953 23.1836 38.3594 22.9961 38 23C38 23 21 23 21 23C20.9688 23 20.9375 23 20.9062 23C20.875 23 20.8438 23 20.8125 23C20.7812 23 20.75 23 20.7188 23ZM20.7188 29C20.168 29.0781 19.7812 29.5898 19.8594 30.1406C19.9375 30.6914 20.4492 31.0781 21 31C21 31 33 31 33 31C33.3594 31.0039 33.6953 30.8164 33.8789 30.5039C34.0586 30.1914 34.0586 29.8086 33.8789 29.4961C33.6953 29.1836 33.3594 28.9961 33 29C33 29 21 29 21 29C20.9688 29 20.9375 29 20.9062 29C20.875 29 20.8438 29 20.8125 29C20.7812 29 20.75 29 20.7188 29ZM20.7188 35C20.168 35.0781 19.7812 35.5898 19.8594 36.1406C19.9375 36.6914 20.4492 37.0781 21 37C21 37 38 37 38 37C38.3594 37.0039 38.6953 36.8164 38.8789 36.5039C39.0586 36.1914 39.0586 35.8086 38.8789 35.4961C38.6953 35.1836 38.3594 34.9961 38 35C38 35 21 35 21 35C20.9688 35 20.9375 35 20.9062 35C20.875 35 20.8438 35 20.8125 35C20.7812 35 20.75 35 20.7188 35ZM20.7188 41C20.168 41.0781 19.7812 41.5898 19.8594 42.1406C19.9375 42.6914 20.4492 43.0781 21 43C21 43 33 43 33 43C33.3594 43.0039 33.6953 42.8164 33.8789 42.5039C34.0586 42.1914 34.0586 41.8086 33.8789 41.4961C33.6953 41.1836 33.3594 40.9961 33 41C33 41 21 41 21 41C20.9688 41 20.9375 41 20.9062 41C20.875 41 20.8438 41 20.8125 41C20.7812 41 20.75 41 20.7188 41Z" fill="black" transform="translate(3 0)" />
  </g>
</svg>