<?xml version="1.0" encoding="utf-8"?>
<svg width="24" height="24" viewBox="0 0 24 24" fill="none" xmlns="http://www.w3.org/2000/svg">
  <g>
    <path d="M2.25 0C1.01625 0 0 1.01625 0 2.25C0 2.25 0 16.75 0 16.75C0 17.9838 1.01625 19 2.25 19C2.25 19 4.75 19 4.75 19C5.98375 19 7 17.9838 7 16.75C7 16.75 7 2.25 7 2.25C7 1.01625 5.98375 0 4.75 0C4.75 0 2.25 0 2.25 0C2.25 0 2.25 0 2.25 0ZM13.25 0C12.0162 0 11 1.01625 11 2.25C11 2.25 11 16.75 11 16.75C11 17.9838 12.0162 19 13.25 19C13.25 19 15.75 19 15.75 19C16.9838 19 18 17.9838 18 16.75C18 16.75 18 2.25 18 2.25C18 1.01625 16.9838 0 15.75 0C15.75 0 13.25 0 13.25 0C13.25 0 13.25 0 13.25 0ZM2.25 1.5C2.25 1.5 4.75 1.5 4.75 1.5C5.17325 1.5 5.5 1.82675 5.5 2.25C5.5 2.25 5.5 16.75 5.5 16.75C5.5 17.1733 5.17325 17.5 4.75 17.5C4.75 17.5 2.25 17.5 2.25 17.5C1.82675 17.5 1.5 17.1733 1.5 16.75C1.5 16.75 1.5 2.25 1.5 2.25C1.5 1.82675 1.82675 1.5 2.25 1.5C2.25 1.5 2.25 1.5 2.25 1.5ZM13.25 1.5C13.25 1.5 15.75 1.5 15.75 1.5C16.1733 1.5 16.5 1.82675 16.5 2.25C16.5 2.25 16.5 16.75 16.5 16.75C16.5 17.1733 16.1733 17.5 15.75 17.5C15.75 17.5 13.25 17.5 13.25 17.5C12.8268 17.5 12.5 17.1733 12.5 16.75C12.5 16.75 12.5 2.25 12.5 2.25C12.5 1.82675 12.8268 1.5 13.25 1.5C13.25 1.5 13.25 1.5 13.25 1.5Z" fill="#000000" transform="translate(3 2.5)" />
  </g>
</svg>