<?xml version="1.0" encoding="utf-8"?>
<svg width="24" height="24" viewBox="0 0 24 24" fill="none" xmlns="http://www.w3.org/2000/svg">
  <g>
    <path d="M2.19824 0.001719C1.0521 0.0470643 0 0.982144 0 2.24195C0 2.24195 0 17.6502 0 17.6502C0 19.3299 1.87138 20.432 3.34082 19.6179C3.34082 19.6179 17.2451 11.9138 17.2451 11.9138C18.7568 11.0762 18.7568 8.81593 17.2451 7.97828C17.2451 7.97828 3.34082 0.27418 3.34082 0.27418C2.97346 0.0706623 2.58029 -0.013396 2.19824 0.001719C2.19824 0.001719 2.19824 0.001719 2.19824 0.001719ZM2.21582 1.47926C2.34512 1.4787 2.48064 1.51222 2.61328 1.5857C2.61328 1.5857 16.5186 9.2898 16.5186 9.2898C17.0678 9.59416 17.0678 10.2979 16.5186 10.6023C16.5186 10.6023 2.61328 18.3064 2.61328 18.3064C2.08272 18.6003 1.5 18.2564 1.5 17.6502C1.5 17.6502 1.5 2.24195 1.5 2.24195C1.5 1.93883 1.64535 1.70186 1.85742 1.57691C1.96346 1.51444 2.08652 1.47981 2.21582 1.47926C2.21582 1.47926 2.21582 1.47926 2.21582 1.47926Z" fill="#000000" transform="translate(3.5 2.054)" />
  </g>
</svg>